<?xml version="1.0" encoding="UTF-8"?>
<svg id="a" data-name="Слой 1" xmlns="http://www.w3.org/2000/svg" viewBox="0 0 452 452">
  <defs>
    <style>
      .b {
        fill: #706f6f;
      }
    </style>
  </defs>
  <path class="b" d="m372,452H80c-44.11,0-80-35.89-80-80V80C0,35.89,35.89,0,80,0h292c44.11,0,80,35.89,80,80v292c0,44.11-35.89,80-80,80ZM80,32c-26.47,0-48,21.53-48,48v292c0,26.47,21.53,48,48,48h292c26.47,0,48-21.53,48-48V80c0-26.47-21.53-48-48-48H80Z"/>
  <g>
    <path class="b" d="m218.24,195.41c0,.75-.13,1.42-.39,2-.26.59-.61,1.07-1.05,1.46s-.96.68-1.56.85c-.6.18-1.21.27-1.83.27h-5.47c-1.14,0-2.12-.11-2.95-.34-.83-.23-1.6-.64-2.29-1.25-.7-.6-1.38-1.42-2.03-2.44-.65-1.03-1.38-2.35-2.2-3.98l-15.72-29.54c-.91-1.76-1.84-3.65-2.78-5.69-.94-2.03-1.79-4.01-2.54-5.93h-.1c.13,2.34.23,4.68.29,7.01.06,2.33.1,4.73.1,7.2v33.06c0,.33-.09.62-.27.88-.18.26-.49.48-.93.66-.44.18-1.03.32-1.78.42-.75.1-1.71.15-2.88.15s-2.08-.05-2.83-.15c-.75-.1-1.33-.24-1.76-.42-.42-.18-.72-.4-.88-.66-.16-.26-.24-.55-.24-.88v-56.79c0-1.53.45-2.68,1.34-3.44.9-.76,1.99-1.15,3.3-1.15h6.88c1.24,0,2.28.11,3.12.32.85.21,1.6.56,2.27,1.05.67.49,1.29,1.16,1.88,2.03.59.86,1.19,1.93,1.81,3.2l12.3,23.1c.72,1.4,1.42,2.78,2.12,4.13.7,1.35,1.38,2.7,2.03,4.05.65,1.35,1.29,2.68,1.9,3.98.62,1.3,1.22,2.6,1.81,3.91h.05c-.1-2.28-.17-4.65-.22-7.13-.05-2.47-.07-4.83-.07-7.08v-29.64c0-.33.1-.62.29-.88.2-.26.52-.49.98-.68.46-.2,1.06-.33,1.81-.42.75-.08,1.71-.12,2.88-.12,1.11,0,2.03.04,2.78.12.75.08,1.33.22,1.73.42.41.2.69.42.85.68.16.26.24.55.24.88v56.79Z"/>
    <path class="b" d="m288.84,167.58c0,5.24-.65,9.93-1.95,14.06-1.3,4.13-3.24,7.64-5.81,10.52-2.57,2.88-5.75,5.08-9.55,6.59-3.79,1.51-8.18,2.27-13.16,2.27s-9.2-.64-12.87-1.93-6.71-3.25-9.16-5.88-4.27-5.99-5.49-10.06c-1.22-4.07-1.83-8.89-1.83-14.45,0-5.11.65-9.71,1.95-13.79,1.3-4.08,3.24-7.56,5.81-10.42,2.57-2.86,5.75-5.06,9.55-6.59,3.79-1.53,8.19-2.29,13.21-2.29s9.01.63,12.67,1.9,6.72,3.22,9.18,5.86c2.46,2.64,4.31,5.97,5.57,9.99,1.25,4.02,1.88,8.76,1.88,14.23Zm-13.48.68c0-3.32-.26-6.34-.78-9.06-.52-2.72-1.41-5.05-2.66-6.98-1.25-1.94-2.92-3.43-5-4.49-2.08-1.06-4.69-1.59-7.81-1.59s-5.79.59-7.91,1.78c-2.12,1.19-3.83,2.78-5.13,4.76-1.3,1.99-2.22,4.31-2.76,6.96-.54,2.65-.81,5.46-.81,8.42,0,3.45.26,6.55.78,9.3.52,2.75,1.4,5.1,2.64,7.06,1.24,1.95,2.9,3.44,4.98,4.47,2.08,1.03,4.7,1.54,7.86,1.54s5.79-.59,7.91-1.76c2.12-1.17,3.82-2.77,5.13-4.79,1.3-2.02,2.22-4.37,2.76-7.06s.81-5.54.81-8.57Z"/>
    <path class="b" d="m102.81,318.14c0,.33-.11.62-.32.88-.21.26-.56.47-1.05.63-.49.16-1.14.29-1.95.39-.81.1-1.86.15-3.12.15s-2.27-.05-3.1-.15-1.49-.23-1.98-.39c-.49-.16-.84-.37-1.05-.63-.21-.26-.32-.55-.32-.88v-59.67c0-.33.11-.62.32-.88.21-.26.57-.47,1.07-.63.5-.16,1.16-.29,1.98-.39.81-.1,1.84-.15,3.08-.15s2.31.05,3.12.15c.81.1,1.46.23,1.95.39.49.16.84.38,1.05.63.21.26.32.55.32.88v59.67Z"/>
    <path class="b" d="m190.21,318.14c0,.33-.09.62-.27.88-.18.26-.5.47-.98.63-.47.16-1.1.29-1.88.39s-1.77.15-2.98.15-2.15-.05-2.93-.15-1.4-.23-1.86-.39c-.46-.16-.78-.37-.98-.63-.2-.26-.29-.55-.29-.88v-51.42h-.1l-18.31,51.37c-.13.42-.34.77-.63,1.05-.29.28-.69.5-1.2.66-.5.16-1.15.27-1.93.32s-1.73.07-2.83.07-2.05-.04-2.83-.12c-.78-.08-1.42-.21-1.93-.39-.5-.18-.9-.4-1.2-.66-.29-.26-.49-.57-.59-.93l-17.68-51.37h-.1v51.42c0,.33-.09.62-.27.88-.18.26-.51.47-1,.63-.49.16-1.12.29-1.88.39-.77.1-1.75.15-2.95.15s-2.15-.05-2.93-.15-1.41-.23-1.88-.39c-.47-.16-.8-.37-.98-.63-.18-.26-.27-.55-.27-.88v-56.3c0-1.66.44-2.93,1.32-3.81s2.05-1.32,3.52-1.32h8.4c1.5,0,2.78.12,3.86.37s2,.65,2.78,1.22c.78.57,1.43,1.32,1.95,2.25.52.93.98,2.08,1.37,3.44l13.67,37.65h.2l14.16-37.55c.42-1.37.89-2.52,1.39-3.47.5-.94,1.09-1.71,1.76-2.29.67-.59,1.46-1,2.37-1.25.91-.24,1.97-.37,3.17-.37h8.64c.88,0,1.64.11,2.27.34.63.23,1.16.56,1.56,1,.41.44.72.98.93,1.61.21.63.32,1.36.32,2.17v56.3Z"/>
    <path class="b" d="m255.74,315.11c.39,1.17.63,2.1.73,2.78s-.03,1.2-.39,1.54c-.36.34-.99.55-1.9.63-.91.08-2.17.12-3.76.12s-2.95-.02-3.88-.07-1.64-.15-2.12-.29-.83-.35-1.03-.61c-.2-.26-.36-.6-.49-1.03l-4.25-12.7h-23.73l-4,12.35c-.13.46-.3.84-.51,1.15-.21.31-.55.55-1.03.73-.47.18-1.14.3-2,.37-.86.06-1.99.1-3.39.1-1.5,0-2.67-.05-3.52-.15-.85-.1-1.43-.33-1.76-.71-.33-.37-.44-.9-.34-1.59s.34-1.59.73-2.73l19.48-56.05c.2-.55.42-1,.68-1.34.26-.34.68-.6,1.25-.78.57-.18,1.36-.29,2.37-.34,1.01-.05,2.34-.07,4-.07,1.92,0,3.45.02,4.59.07,1.14.05,2.03.16,2.66.34.63.18,1.09.45,1.37.81.28.36.51.85.71,1.46l19.53,56.01Zm-29-46.34h-.05l-8.94,26.86h17.92l-8.94-26.86Z"/>
    <path class="b" d="m314.04,266.53c0,.94-.04,1.76-.12,2.44-.08.68-.2,1.23-.34,1.64-.15.41-.33.69-.54.85-.21.16-.46.24-.76.24-.42,0-1.11-.29-2.05-.88-.94-.59-2.2-1.22-3.76-1.9s-3.43-1.32-5.59-1.9c-2.17-.59-4.68-.88-7.54-.88-3.06,0-5.83.53-8.3,1.59-2.47,1.06-4.59,2.56-6.35,4.49-1.76,1.94-3.11,4.26-4.05,6.98-.94,2.72-1.42,5.72-1.42,9.01,0,3.61.48,6.8,1.44,9.55.96,2.75,2.3,5.05,4.03,6.91,1.72,1.86,3.8,3.26,6.23,4.2,2.42.94,5.1,1.42,8.03,1.42,1.43,0,2.85-.16,4.25-.49,1.4-.33,2.7-.81,3.91-1.46v-14.65h-11.96c-.59,0-1.04-.37-1.37-1.1-.33-.73-.49-1.98-.49-3.74,0-.91.04-1.68.12-2.29.08-.62.2-1.11.37-1.49.16-.37.36-.65.59-.83.23-.18.49-.27.78-.27h21.34c.52,0,.98.09,1.39.27.41.18.76.45,1.07.81.31.36.54.79.71,1.29.16.5.24,1.08.24,1.73v25.15c0,.98-.17,1.83-.51,2.56s-1.04,1.31-2.1,1.73c-1.06.42-2.37.86-3.93,1.32-1.56.46-3.18.85-4.86,1.17-1.68.33-3.37.57-5.08.73-1.71.16-3.43.24-5.15.24-5.05,0-9.56-.72-13.55-2.17-3.99-1.45-7.37-3.55-10.13-6.3-2.77-2.75-4.88-6.1-6.35-10.06s-2.2-8.44-2.2-13.45.78-9.82,2.34-13.94c1.56-4.12,3.78-7.62,6.64-10.5,2.86-2.88,6.32-5.09,10.38-6.62,4.05-1.53,8.57-2.29,13.55-2.29,2.73,0,5.22.19,7.47.56,2.25.38,4.21.83,5.88,1.37,1.68.54,3.07,1.12,4.17,1.73,1.11.62,1.88,1.16,2.32,1.61.44.46.76,1.1.95,1.93s.29,2.06.29,3.69Z"/>
    <path class="b" d="m364.53,314.87c0,.94-.04,1.73-.12,2.37-.08.63-.2,1.15-.37,1.54-.16.39-.37.68-.61.85-.24.18-.51.27-.81.27h-31.74c-1.07,0-1.98-.32-2.71-.95s-1.1-1.67-1.1-3.1v-55.08c0-1.43.37-2.47,1.1-3.1s1.64-.95,2.71-.95h31.54c.29,0,.55.08.78.24.23.16.42.45.59.85.16.41.28.93.37,1.56.08.63.12,1.44.12,2.42,0,.91-.04,1.68-.12,2.32-.08.63-.2,1.15-.37,1.54-.16.39-.36.68-.59.85-.23.18-.49.27-.78.27h-22.56v15.43h19.09c.29,0,.56.09.81.27.24.18.45.46.61.83.16.38.28.88.37,1.51.08.63.12,1.41.12,2.32s-.04,1.73-.12,2.34c-.08.62-.2,1.12-.37,1.49-.16.38-.37.64-.61.81-.24.16-.51.24-.81.24h-19.09v17.82h22.75c.29,0,.56.09.81.27.24.18.45.46.61.85.16.39.28.9.37,1.54.08.63.12,1.42.12,2.37Z"/>
  </g>
</svg>